<mxfile host="app.diagrams.net" modified="2023-07-22T11:11:24.004Z" agent="Mozilla/5.0 (Windows NT 10.0; Win64; x64) AppleWebKit/537.36 (KHTML, like Gecko) Chrome/115.0.0.0 Safari/537.36" etag="zCQCxWkcgPTnTJx2rAua" version="21.6.5" type="google">
  <diagram name="Page-1" id="pd8a623hLk0AIzyN5WmQ">
    <mxGraphModel grid="1" page="1" gridSize="10" guides="1" tooltips="1" connect="1" arrows="1" fold="1" pageScale="1" pageWidth="850" pageHeight="1100" math="0" shadow="0">
      <root>
        <mxCell id="0" />
        <mxCell id="1" parent="0" />
        <mxCell id="1dJ15UPN3zkqWy4lF9qx-1" value="Activity diagram for bank management system" style="text;strokeColor=none;align=center;fillColor=none;html=1;verticalAlign=middle;whiteSpace=wrap;rounded=0;" vertex="1" parent="1">
          <mxGeometry y="50" width="290" height="10" as="geometry" />
        </mxCell>
        <mxCell id="1dJ15UPN3zkqWy4lF9qx-3" value="" style="ellipse;html=1;shape=startState;fillColor=#000000;strokeColor=#ff0000;" vertex="1" parent="1">
          <mxGeometry x="90" y="120" width="30" height="30" as="geometry" />
        </mxCell>
        <mxCell id="1dJ15UPN3zkqWy4lF9qx-4" value="" style="edgeStyle=orthogonalEdgeStyle;html=1;verticalAlign=bottom;endArrow=open;endSize=8;strokeColor=#ff0000;rounded=0;exitX=1;exitY=0.5;exitDx=0;exitDy=0;" edge="1" parent="1">
          <mxGeometry relative="1" as="geometry">
            <mxPoint x="200" y="135" as="targetPoint" />
            <mxPoint x="117" y="135" as="sourcePoint" />
          </mxGeometry>
        </mxCell>
        <mxCell id="1dJ15UPN3zkqWy4lF9qx-8" value="" style="edgeStyle=orthogonalEdgeStyle;rounded=0;orthogonalLoop=1;jettySize=auto;html=1;" edge="1" parent="1" source="1dJ15UPN3zkqWy4lF9qx-5" target="1dJ15UPN3zkqWy4lF9qx-7">
          <mxGeometry relative="1" as="geometry" />
        </mxCell>
        <mxCell id="1dJ15UPN3zkqWy4lF9qx-5" value="Create Saving Account" style="html=1;whiteSpace=wrap;" vertex="1" parent="1">
          <mxGeometry x="200" y="110" width="110" height="50" as="geometry" />
        </mxCell>
        <mxCell id="1dJ15UPN3zkqWy4lF9qx-6" value="idle" style="text;strokeColor=none;align=center;fillColor=none;html=1;verticalAlign=middle;whiteSpace=wrap;rounded=0;" vertex="1" parent="1">
          <mxGeometry x="121" y="112" width="60" height="30" as="geometry" />
        </mxCell>
        <mxCell id="1dJ15UPN3zkqWy4lF9qx-12" value="" style="edgeStyle=orthogonalEdgeStyle;rounded=0;orthogonalLoop=1;jettySize=auto;html=1;" edge="1" parent="1" source="1dJ15UPN3zkqWy4lF9qx-7" target="1dJ15UPN3zkqWy4lF9qx-11">
          <mxGeometry relative="1" as="geometry" />
        </mxCell>
        <mxCell id="1dJ15UPN3zkqWy4lF9qx-7" value="Validate" style="html=1;whiteSpace=wrap;" vertex="1" parent="1">
          <mxGeometry x="370" y="110" width="110" height="50" as="geometry" />
        </mxCell>
        <mxCell id="1dJ15UPN3zkqWy4lF9qx-9" value="Send details" style="text;strokeColor=none;align=center;fillColor=none;html=1;verticalAlign=middle;whiteSpace=wrap;rounded=0;" vertex="1" parent="1">
          <mxGeometry x="309" y="104" width="60" height="30" as="geometry" />
        </mxCell>
        <mxCell id="1dJ15UPN3zkqWy4lF9qx-15" value="" style="edgeStyle=orthogonalEdgeStyle;rounded=0;orthogonalLoop=1;jettySize=auto;html=1;" edge="1" parent="1" source="1dJ15UPN3zkqWy4lF9qx-10" target="1dJ15UPN3zkqWy4lF9qx-14">
          <mxGeometry relative="1" as="geometry" />
        </mxCell>
        <mxCell id="1dJ15UPN3zkqWy4lF9qx-10" value="Create account in database" style="html=1;whiteSpace=wrap;" vertex="1" parent="1">
          <mxGeometry x="660" y="110" width="110" height="50" as="geometry" />
        </mxCell>
        <mxCell id="1dJ15UPN3zkqWy4lF9qx-13" value="" style="edgeStyle=orthogonalEdgeStyle;rounded=0;orthogonalLoop=1;jettySize=auto;html=1;" edge="1" parent="1" source="1dJ15UPN3zkqWy4lF9qx-11" target="1dJ15UPN3zkqWy4lF9qx-10">
          <mxGeometry relative="1" as="geometry" />
        </mxCell>
        <mxCell id="1dJ15UPN3zkqWy4lF9qx-19" value="" style="edgeStyle=orthogonalEdgeStyle;rounded=0;orthogonalLoop=1;jettySize=auto;html=1;" edge="1" parent="1" source="1dJ15UPN3zkqWy4lF9qx-11" target="1dJ15UPN3zkqWy4lF9qx-18">
          <mxGeometry relative="1" as="geometry" />
        </mxCell>
        <mxCell id="1dJ15UPN3zkqWy4lF9qx-11" value="Is valid" style="rhombus;whiteSpace=wrap;html=1;" vertex="1" parent="1">
          <mxGeometry x="540" y="102.5" width="70" height="65" as="geometry" />
        </mxCell>
        <mxCell id="1dJ15UPN3zkqWy4lF9qx-17" value="" style="edgeStyle=orthogonalEdgeStyle;rounded=0;orthogonalLoop=1;jettySize=auto;html=1;" edge="1" parent="1" source="1dJ15UPN3zkqWy4lF9qx-14" target="1dJ15UPN3zkqWy4lF9qx-16">
          <mxGeometry relative="1" as="geometry" />
        </mxCell>
        <mxCell id="1dJ15UPN3zkqWy4lF9qx-14" value="Confirm message to user" style="rounded=0;whiteSpace=wrap;html=1;" vertex="1" parent="1">
          <mxGeometry x="655" y="210" width="120" height="60" as="geometry" />
        </mxCell>
        <mxCell id="1dJ15UPN3zkqWy4lF9qx-16" value="" style="ellipse;html=1;shape=endState;fillColor=#000000;strokeColor=#ff0000;" vertex="1" parent="1">
          <mxGeometry x="700" y="310" width="30" height="30" as="geometry" />
        </mxCell>
        <mxCell id="1dJ15UPN3zkqWy4lF9qx-20" value="" style="edgeStyle=orthogonalEdgeStyle;rounded=0;orthogonalLoop=1;jettySize=auto;html=1;" edge="1" parent="1" source="1dJ15UPN3zkqWy4lF9qx-18" target="1dJ15UPN3zkqWy4lF9qx-14">
          <mxGeometry relative="1" as="geometry" />
        </mxCell>
        <mxCell id="1dJ15UPN3zkqWy4lF9qx-18" value="Reject the detail" style="html=1;whiteSpace=wrap;" vertex="1" parent="1">
          <mxGeometry x="520" y="210" width="110" height="60" as="geometry" />
        </mxCell>
        <mxCell id="1dJ15UPN3zkqWy4lF9qx-21" value="Validate the detail" style="text;strokeColor=none;align=center;fillColor=none;html=1;verticalAlign=middle;whiteSpace=wrap;rounded=0;" vertex="1" parent="1">
          <mxGeometry x="480" y="103.5" width="60" height="30" as="geometry" />
        </mxCell>
        <mxCell id="1dJ15UPN3zkqWy4lF9qx-22" value="Validate Approve" style="text;strokeColor=none;align=center;fillColor=none;html=1;verticalAlign=middle;whiteSpace=wrap;rounded=0;" vertex="1" parent="1">
          <mxGeometry x="600" y="102.5" width="60" height="30" as="geometry" />
        </mxCell>
        <mxCell id="1dJ15UPN3zkqWy4lF9qx-23" value="Validate Reject" style="text;strokeColor=none;align=center;fillColor=none;html=1;verticalAlign=middle;whiteSpace=wrap;rounded=0;" vertex="1" parent="1">
          <mxGeometry x="520" y="167.5" width="60" height="30" as="geometry" />
        </mxCell>
        <mxCell id="1dJ15UPN3zkqWy4lF9qx-24" value="Start" style="text;strokeColor=none;align=center;fillColor=none;html=1;verticalAlign=middle;whiteSpace=wrap;rounded=0;" vertex="1" parent="1">
          <mxGeometry x="75" y="100" width="60" height="30" as="geometry" />
        </mxCell>
        <mxCell id="1dJ15UPN3zkqWy4lF9qx-25" value="End" style="text;strokeColor=none;align=center;fillColor=none;html=1;verticalAlign=middle;whiteSpace=wrap;rounded=0;" vertex="1" parent="1">
          <mxGeometry x="710" y="330" width="60" height="30" as="geometry" />
        </mxCell>
        <mxCell id="1dJ15UPN3zkqWy4lF9qx-26" value="" style="ellipse;html=1;shape=startState;fillColor=#000000;strokeColor=#ff0000;" vertex="1" parent="1">
          <mxGeometry x="115" y="450" width="30" height="30" as="geometry" />
        </mxCell>
        <mxCell id="1dJ15UPN3zkqWy4lF9qx-27" value="" style="edgeStyle=orthogonalEdgeStyle;html=1;verticalAlign=bottom;endArrow=open;endSize=8;strokeColor=#ff0000;rounded=0;exitX=1;exitY=0.5;exitDx=0;exitDy=0;" edge="1" parent="1">
          <mxGeometry relative="1" as="geometry">
            <mxPoint x="225" y="465" as="targetPoint" />
            <mxPoint x="142" y="465" as="sourcePoint" />
          </mxGeometry>
        </mxCell>
        <mxCell id="1dJ15UPN3zkqWy4lF9qx-28" value="" style="edgeStyle=orthogonalEdgeStyle;rounded=0;orthogonalLoop=1;jettySize=auto;html=1;" edge="1" parent="1" source="1dJ15UPN3zkqWy4lF9qx-29" target="1dJ15UPN3zkqWy4lF9qx-32">
          <mxGeometry relative="1" as="geometry" />
        </mxCell>
        <mxCell id="1dJ15UPN3zkqWy4lF9qx-29" value="Deposit Money" style="html=1;whiteSpace=wrap;" vertex="1" parent="1">
          <mxGeometry x="225" y="440" width="110" height="50" as="geometry" />
        </mxCell>
        <mxCell id="1dJ15UPN3zkqWy4lF9qx-30" value="idle" style="text;strokeColor=none;align=center;fillColor=none;html=1;verticalAlign=middle;whiteSpace=wrap;rounded=0;" vertex="1" parent="1">
          <mxGeometry x="146" y="442" width="60" height="30" as="geometry" />
        </mxCell>
        <mxCell id="1dJ15UPN3zkqWy4lF9qx-31" value="" style="edgeStyle=orthogonalEdgeStyle;rounded=0;orthogonalLoop=1;jettySize=auto;html=1;" edge="1" parent="1" source="1dJ15UPN3zkqWy4lF9qx-32">
          <mxGeometry relative="1" as="geometry">
            <mxPoint x="565" y="465" as="targetPoint" />
          </mxGeometry>
        </mxCell>
        <mxCell id="1dJ15UPN3zkqWy4lF9qx-32" value="Bank system" style="html=1;whiteSpace=wrap;" vertex="1" parent="1">
          <mxGeometry x="395" y="440" width="110" height="50" as="geometry" />
        </mxCell>
        <mxCell id="1dJ15UPN3zkqWy4lF9qx-33" value="Deposit Money" style="text;strokeColor=none;align=center;fillColor=none;html=1;verticalAlign=middle;whiteSpace=wrap;rounded=0;" vertex="1" parent="1">
          <mxGeometry x="334" y="434" width="60" height="30" as="geometry" />
        </mxCell>
        <mxCell id="1dJ15UPN3zkqWy4lF9qx-34" value="" style="edgeStyle=orthogonalEdgeStyle;rounded=0;orthogonalLoop=1;jettySize=auto;html=1;" edge="1" parent="1" source="1dJ15UPN3zkqWy4lF9qx-35" target="1dJ15UPN3zkqWy4lF9qx-40">
          <mxGeometry relative="1" as="geometry" />
        </mxCell>
        <mxCell id="1dJ15UPN3zkqWy4lF9qx-35" value="DataBase" style="html=1;whiteSpace=wrap;" vertex="1" parent="1">
          <mxGeometry x="565" y="440" width="110" height="50" as="geometry" />
        </mxCell>
        <mxCell id="1dJ15UPN3zkqWy4lF9qx-39" value="" style="edgeStyle=orthogonalEdgeStyle;rounded=0;orthogonalLoop=1;jettySize=auto;html=1;" edge="1" parent="1" source="1dJ15UPN3zkqWy4lF9qx-40" target="1dJ15UPN3zkqWy4lF9qx-41">
          <mxGeometry relative="1" as="geometry" />
        </mxCell>
        <mxCell id="1dJ15UPN3zkqWy4lF9qx-40" value="Confirm message to user" style="rounded=0;whiteSpace=wrap;html=1;" vertex="1" parent="1">
          <mxGeometry x="680" y="510" width="120" height="60" as="geometry" />
        </mxCell>
        <mxCell id="1dJ15UPN3zkqWy4lF9qx-41" value="" style="ellipse;html=1;shape=endState;fillColor=#000000;strokeColor=#ff0000;" vertex="1" parent="1">
          <mxGeometry x="550" y="525" width="30" height="30" as="geometry" />
        </mxCell>
        <mxCell id="1dJ15UPN3zkqWy4lF9qx-44" value="Update balance" style="text;strokeColor=none;align=center;fillColor=none;html=1;verticalAlign=middle;whiteSpace=wrap;rounded=0;" vertex="1" parent="1">
          <mxGeometry x="505" y="433.5" width="60" height="30" as="geometry" />
        </mxCell>
        <mxCell id="1dJ15UPN3zkqWy4lF9qx-47" value="Start" style="text;strokeColor=none;align=center;fillColor=none;html=1;verticalAlign=middle;whiteSpace=wrap;rounded=0;" vertex="1" parent="1">
          <mxGeometry x="100" y="430" width="60" height="30" as="geometry" />
        </mxCell>
        <mxCell id="1dJ15UPN3zkqWy4lF9qx-48" value="End" style="text;strokeColor=none;align=center;fillColor=none;html=1;verticalAlign=middle;whiteSpace=wrap;rounded=0;" vertex="1" parent="1">
          <mxGeometry x="535" y="549" width="60" height="30" as="geometry" />
        </mxCell>
        <mxCell id="1dJ15UPN3zkqWy4lF9qx-49" value="Store the details in database" style="text;strokeColor=none;align=center;fillColor=none;html=1;verticalAlign=middle;whiteSpace=wrap;rounded=0;" vertex="1" parent="1">
          <mxGeometry x="677" y="426" width="60" height="30" as="geometry" />
        </mxCell>
        <mxCell id="1dJ15UPN3zkqWy4lF9qx-50" value="Update to user" style="text;strokeColor=none;align=center;fillColor=none;html=1;verticalAlign=middle;whiteSpace=wrap;rounded=0;" vertex="1" parent="1">
          <mxGeometry x="740" y="464" width="60" height="30" as="geometry" />
        </mxCell>
        <mxCell id="1dJ15UPN3zkqWy4lF9qx-52" value="" style="ellipse;html=1;shape=startState;fillColor=#000000;strokeColor=#ff0000;" vertex="1" parent="1">
          <mxGeometry x="120" y="704" width="30" height="30" as="geometry" />
        </mxCell>
        <mxCell id="1dJ15UPN3zkqWy4lF9qx-53" value="" style="edgeStyle=orthogonalEdgeStyle;html=1;verticalAlign=bottom;endArrow=open;endSize=8;strokeColor=#ff0000;rounded=0;exitX=1;exitY=0.5;exitDx=0;exitDy=0;" edge="1" parent="1">
          <mxGeometry relative="1" as="geometry">
            <mxPoint x="230" y="719" as="targetPoint" />
            <mxPoint x="147" y="719" as="sourcePoint" />
          </mxGeometry>
        </mxCell>
        <mxCell id="1dJ15UPN3zkqWy4lF9qx-54" value="" style="edgeStyle=orthogonalEdgeStyle;rounded=0;orthogonalLoop=1;jettySize=auto;html=1;" edge="1" parent="1" source="1dJ15UPN3zkqWy4lF9qx-55" target="1dJ15UPN3zkqWy4lF9qx-58">
          <mxGeometry relative="1" as="geometry" />
        </mxCell>
        <mxCell id="1dJ15UPN3zkqWy4lF9qx-55" value="Withdraw Money" style="html=1;whiteSpace=wrap;" vertex="1" parent="1">
          <mxGeometry x="230" y="694" width="110" height="50" as="geometry" />
        </mxCell>
        <mxCell id="1dJ15UPN3zkqWy4lF9qx-56" value="idle" style="text;strokeColor=none;align=center;fillColor=none;html=1;verticalAlign=middle;whiteSpace=wrap;rounded=0;" vertex="1" parent="1">
          <mxGeometry x="151" y="696" width="60" height="30" as="geometry" />
        </mxCell>
        <mxCell id="1dJ15UPN3zkqWy4lF9qx-57" value="" style="edgeStyle=orthogonalEdgeStyle;rounded=0;orthogonalLoop=1;jettySize=auto;html=1;" edge="1" parent="1" source="1dJ15UPN3zkqWy4lF9qx-58">
          <mxGeometry relative="1" as="geometry">
            <mxPoint x="570" y="719" as="targetPoint" />
          </mxGeometry>
        </mxCell>
        <mxCell id="1dJ15UPN3zkqWy4lF9qx-58" value="Bank system" style="html=1;whiteSpace=wrap;" vertex="1" parent="1">
          <mxGeometry x="400" y="694" width="110" height="50" as="geometry" />
        </mxCell>
        <mxCell id="1dJ15UPN3zkqWy4lF9qx-59" value="Send the Request" style="text;strokeColor=none;align=center;fillColor=none;html=1;verticalAlign=middle;whiteSpace=wrap;rounded=0;" vertex="1" parent="1">
          <mxGeometry x="339" y="688" width="60" height="30" as="geometry" />
        </mxCell>
        <mxCell id="1dJ15UPN3zkqWy4lF9qx-73" value="" style="edgeStyle=orthogonalEdgeStyle;rounded=0;orthogonalLoop=1;jettySize=auto;html=1;" edge="1" parent="1" source="1dJ15UPN3zkqWy4lF9qx-61" target="1dJ15UPN3zkqWy4lF9qx-72">
          <mxGeometry relative="1" as="geometry" />
        </mxCell>
        <mxCell id="1dJ15UPN3zkqWy4lF9qx-61" value="DataBase" style="html=1;whiteSpace=wrap;" vertex="1" parent="1">
          <mxGeometry x="677" y="694" width="110" height="50" as="geometry" />
        </mxCell>
        <mxCell id="1dJ15UPN3zkqWy4lF9qx-75" value="" style="edgeStyle=orthogonalEdgeStyle;rounded=0;orthogonalLoop=1;jettySize=auto;html=1;" edge="1" parent="1" source="1dJ15UPN3zkqWy4lF9qx-63" target="1dJ15UPN3zkqWy4lF9qx-64">
          <mxGeometry relative="1" as="geometry" />
        </mxCell>
        <mxCell id="1dJ15UPN3zkqWy4lF9qx-63" value="Confirm message to user" style="rounded=0;whiteSpace=wrap;html=1;" vertex="1" parent="1">
          <mxGeometry x="500" y="794" width="120" height="60" as="geometry" />
        </mxCell>
        <mxCell id="1dJ15UPN3zkqWy4lF9qx-64" value="" style="ellipse;html=1;shape=endState;fillColor=#000000;strokeColor=#ff0000;" vertex="1" parent="1">
          <mxGeometry x="420" y="809" width="30" height="30" as="geometry" />
        </mxCell>
        <mxCell id="1dJ15UPN3zkqWy4lF9qx-65" value="Request the withdraw to the bank" style="text;strokeColor=none;align=center;fillColor=none;html=1;verticalAlign=middle;whiteSpace=wrap;rounded=0;" vertex="1" parent="1">
          <mxGeometry x="510" y="666" width="60" height="30" as="geometry" />
        </mxCell>
        <mxCell id="1dJ15UPN3zkqWy4lF9qx-66" value="Start" style="text;strokeColor=none;align=center;fillColor=none;html=1;verticalAlign=middle;whiteSpace=wrap;rounded=0;" vertex="1" parent="1">
          <mxGeometry x="113" y="684" width="60" height="30" as="geometry" />
        </mxCell>
        <mxCell id="1dJ15UPN3zkqWy4lF9qx-67" value="End" style="text;strokeColor=none;align=center;fillColor=none;html=1;verticalAlign=middle;whiteSpace=wrap;rounded=0;" vertex="1" parent="1">
          <mxGeometry x="391" y="830" width="60" height="30" as="geometry" />
        </mxCell>
        <mxCell id="1dJ15UPN3zkqWy4lF9qx-68" value="Update the details in database&amp;nbsp;" style="text;strokeColor=none;align=center;fillColor=none;html=1;verticalAlign=middle;whiteSpace=wrap;rounded=0;" vertex="1" parent="1">
          <mxGeometry x="790" y="704" width="60" height="30" as="geometry" />
        </mxCell>
        <mxCell id="1dJ15UPN3zkqWy4lF9qx-69" value="Update to user" style="text;strokeColor=none;align=center;fillColor=none;html=1;verticalAlign=middle;whiteSpace=wrap;rounded=0;" vertex="1" parent="1">
          <mxGeometry x="530" y="860" width="60" height="30" as="geometry" />
        </mxCell>
        <mxCell id="1dJ15UPN3zkqWy4lF9qx-71" value="" style="edgeStyle=orthogonalEdgeStyle;rounded=0;orthogonalLoop=1;jettySize=auto;html=1;" edge="1" parent="1" source="1dJ15UPN3zkqWy4lF9qx-70" target="1dJ15UPN3zkqWy4lF9qx-61">
          <mxGeometry relative="1" as="geometry" />
        </mxCell>
        <mxCell id="1dJ15UPN3zkqWy4lF9qx-78" style="edgeStyle=orthogonalEdgeStyle;rounded=0;orthogonalLoop=1;jettySize=auto;html=1;entryX=0.5;entryY=0.033;entryDx=0;entryDy=0;entryPerimeter=0;" edge="1" parent="1" source="1dJ15UPN3zkqWy4lF9qx-70" target="1dJ15UPN3zkqWy4lF9qx-64">
          <mxGeometry relative="1" as="geometry">
            <mxPoint x="430" y="800" as="targetPoint" />
            <Array as="points">
              <mxPoint x="605" y="780" />
              <mxPoint x="435" y="780" />
            </Array>
          </mxGeometry>
        </mxCell>
        <mxCell id="1dJ15UPN3zkqWy4lF9qx-70" value="Is valid" style="rhombus;whiteSpace=wrap;html=1;" vertex="1" parent="1">
          <mxGeometry x="570" y="684" width="70" height="70" as="geometry" />
        </mxCell>
        <mxCell id="1dJ15UPN3zkqWy4lF9qx-74" value="" style="edgeStyle=orthogonalEdgeStyle;rounded=0;orthogonalLoop=1;jettySize=auto;html=1;" edge="1" parent="1" source="1dJ15UPN3zkqWy4lF9qx-72" target="1dJ15UPN3zkqWy4lF9qx-63">
          <mxGeometry relative="1" as="geometry" />
        </mxCell>
        <mxCell id="1dJ15UPN3zkqWy4lF9qx-72" value="Money send to user" style="rounded=0;whiteSpace=wrap;html=1;" vertex="1" parent="1">
          <mxGeometry x="672" y="794" width="120" height="60" as="geometry" />
        </mxCell>
        <mxCell id="1dJ15UPN3zkqWy4lF9qx-76" value="Check whether the money is enough for withdraw" style="text;strokeColor=none;align=center;fillColor=none;html=1;verticalAlign=middle;whiteSpace=wrap;rounded=0;" vertex="1" parent="1">
          <mxGeometry x="575" y="627" width="60" height="30" as="geometry" />
        </mxCell>
        <mxCell id="1dJ15UPN3zkqWy4lF9qx-77" value="enough money" style="text;strokeColor=none;align=center;fillColor=none;html=1;verticalAlign=middle;whiteSpace=wrap;rounded=0;" vertex="1" parent="1">
          <mxGeometry x="626" y="684" width="60" height="30" as="geometry" />
        </mxCell>
        <mxCell id="1dJ15UPN3zkqWy4lF9qx-79" value="Not enough money" style="text;strokeColor=none;align=center;fillColor=none;html=1;verticalAlign=middle;whiteSpace=wrap;rounded=0;" vertex="1" parent="1">
          <mxGeometry x="540" y="740" width="60" height="30" as="geometry" />
        </mxCell>
        <mxCell id="1dJ15UPN3zkqWy4lF9qx-80" value="" style="ellipse;html=1;shape=startState;fillColor=#000000;strokeColor=#ff0000;" vertex="1" parent="1">
          <mxGeometry x="117" y="990" width="30" height="30" as="geometry" />
        </mxCell>
        <mxCell id="1dJ15UPN3zkqWy4lF9qx-81" value="" style="edgeStyle=orthogonalEdgeStyle;html=1;verticalAlign=bottom;endArrow=open;endSize=8;strokeColor=#ff0000;rounded=0;exitX=1;exitY=0.5;exitDx=0;exitDy=0;" edge="1" parent="1">
          <mxGeometry relative="1" as="geometry">
            <mxPoint x="227" y="1005" as="targetPoint" />
            <mxPoint x="144" y="1005" as="sourcePoint" />
          </mxGeometry>
        </mxCell>
        <mxCell id="1dJ15UPN3zkqWy4lF9qx-82" value="" style="edgeStyle=orthogonalEdgeStyle;rounded=0;orthogonalLoop=1;jettySize=auto;html=1;" edge="1" parent="1" source="1dJ15UPN3zkqWy4lF9qx-83" target="1dJ15UPN3zkqWy4lF9qx-86">
          <mxGeometry relative="1" as="geometry" />
        </mxCell>
        <mxCell id="1dJ15UPN3zkqWy4lF9qx-83" value="Check balance" style="html=1;whiteSpace=wrap;" vertex="1" parent="1">
          <mxGeometry x="227" y="980" width="110" height="50" as="geometry" />
        </mxCell>
        <mxCell id="1dJ15UPN3zkqWy4lF9qx-84" value="idle" style="text;strokeColor=none;align=center;fillColor=none;html=1;verticalAlign=middle;whiteSpace=wrap;rounded=0;" vertex="1" parent="1">
          <mxGeometry x="148" y="982" width="60" height="30" as="geometry" />
        </mxCell>
        <mxCell id="1dJ15UPN3zkqWy4lF9qx-85" value="" style="edgeStyle=orthogonalEdgeStyle;rounded=0;orthogonalLoop=1;jettySize=auto;html=1;" edge="1" parent="1" source="1dJ15UPN3zkqWy4lF9qx-86">
          <mxGeometry relative="1" as="geometry">
            <mxPoint x="567" y="1005" as="targetPoint" />
          </mxGeometry>
        </mxCell>
        <mxCell id="1dJ15UPN3zkqWy4lF9qx-86" value="Bank System" style="html=1;whiteSpace=wrap;" vertex="1" parent="1">
          <mxGeometry x="397" y="980" width="110" height="50" as="geometry" />
        </mxCell>
        <mxCell id="1dJ15UPN3zkqWy4lF9qx-87" value="Send Request" style="text;strokeColor=none;align=center;fillColor=none;html=1;verticalAlign=middle;whiteSpace=wrap;rounded=0;" vertex="1" parent="1">
          <mxGeometry x="336" y="974" width="60" height="30" as="geometry" />
        </mxCell>
        <mxCell id="1dJ15UPN3zkqWy4lF9qx-88" value="" style="edgeStyle=orthogonalEdgeStyle;rounded=0;orthogonalLoop=1;jettySize=auto;html=1;" edge="1" parent="1" source="1dJ15UPN3zkqWy4lF9qx-89" target="1dJ15UPN3zkqWy4lF9qx-94">
          <mxGeometry relative="1" as="geometry" />
        </mxCell>
        <mxCell id="1dJ15UPN3zkqWy4lF9qx-89" value="DataBase" style="html=1;whiteSpace=wrap;" vertex="1" parent="1">
          <mxGeometry x="567" y="980" width="110" height="50" as="geometry" />
        </mxCell>
        <mxCell id="1dJ15UPN3zkqWy4lF9qx-93" value="" style="edgeStyle=orthogonalEdgeStyle;rounded=0;orthogonalLoop=1;jettySize=auto;html=1;" edge="1" parent="1" source="1dJ15UPN3zkqWy4lF9qx-94" target="1dJ15UPN3zkqWy4lF9qx-95">
          <mxGeometry relative="1" as="geometry">
            <Array as="points">
              <mxPoint x="790" y="1105" />
            </Array>
          </mxGeometry>
        </mxCell>
        <mxCell id="1dJ15UPN3zkqWy4lF9qx-94" value="Confirm message to user" style="rounded=0;whiteSpace=wrap;html=1;" vertex="1" parent="1">
          <mxGeometry x="710" y="975" width="120" height="60" as="geometry" />
        </mxCell>
        <mxCell id="1dJ15UPN3zkqWy4lF9qx-95" value="" style="ellipse;html=1;shape=endState;fillColor=#000000;strokeColor=#ff0000;" vertex="1" parent="1">
          <mxGeometry x="660" y="1090" width="30" height="30" as="geometry" />
        </mxCell>
        <mxCell id="1dJ15UPN3zkqWy4lF9qx-98" value="Request bank" style="text;strokeColor=none;align=center;fillColor=none;html=1;verticalAlign=middle;whiteSpace=wrap;rounded=0;" vertex="1" parent="1">
          <mxGeometry x="507" y="973.5" width="60" height="30" as="geometry" />
        </mxCell>
        <mxCell id="1dJ15UPN3zkqWy4lF9qx-101" value="Start" style="text;strokeColor=none;align=center;fillColor=none;html=1;verticalAlign=middle;whiteSpace=wrap;rounded=0;" vertex="1" parent="1">
          <mxGeometry x="102" y="970" width="60" height="30" as="geometry" />
        </mxCell>
        <mxCell id="1dJ15UPN3zkqWy4lF9qx-102" value="End" style="text;strokeColor=none;align=center;fillColor=none;html=1;verticalAlign=middle;whiteSpace=wrap;rounded=0;" vertex="1" parent="1">
          <mxGeometry x="626" y="1120" width="60" height="30" as="geometry" />
        </mxCell>
        <mxCell id="1dJ15UPN3zkqWy4lF9qx-104" value="Get the detail&amp;nbsp;" style="text;strokeColor=none;align=center;fillColor=none;html=1;verticalAlign=middle;whiteSpace=wrap;rounded=0;" vertex="1" parent="1">
          <mxGeometry x="595" y="940" width="60" height="30" as="geometry" />
        </mxCell>
        <mxCell id="1dJ15UPN3zkqWy4lF9qx-105" value="Send update to user" style="text;strokeColor=none;align=center;fillColor=none;html=1;verticalAlign=middle;whiteSpace=wrap;rounded=0;" vertex="1" parent="1">
          <mxGeometry x="737" y="930" width="60" height="30" as="geometry" />
        </mxCell>
      </root>
    </mxGraphModel>
  </diagram>
</mxfile>
